<mxfile host="app.diagrams.net" modified="2021-05-20T03:56:17.594Z" agent="5.0 (Windows NT 10.0; Win64; x64) AppleWebKit/537.36 (KHTML, like Gecko) Chrome/90.0.4430.212 Safari/537.36" etag="7Me-L1sQM60eGgUYhUgA" version="14.6.10" type="github">
  <diagram name="Page-1" id="2a216829-ef6e-dabb-86c1-c78162f3ba2b">
    <mxGraphModel dx="1422" dy="914" grid="1" gridSize="10" guides="1" tooltips="1" connect="1" arrows="1" fold="1" page="1" pageScale="1" pageWidth="850" pageHeight="1100" background="#ffffff" math="0" shadow="0">
      <root>
        <mxCell id="0" />
        <mxCell id="1" parent="0" />
        <mxCell id="29LC9v6IH8hvMAatevx2-4" value="&lt;b&gt;&lt;font style=&quot;font-size: 14px&quot;&gt;下载excel/csv&lt;/font&gt;&lt;/b&gt;" style="edgeStyle=orthogonalEdgeStyle;rounded=0;orthogonalLoop=1;jettySize=auto;html=1;align=center;" edge="1" parent="1" source="29LC9v6IH8hvMAatevx2-2" target="29LC9v6IH8hvMAatevx2-3">
          <mxGeometry relative="1" as="geometry" />
        </mxCell>
        <mxCell id="29LC9v6IH8hvMAatevx2-2" value="用户" style="rounded=1;whiteSpace=wrap;html=1;" vertex="1" parent="1">
          <mxGeometry x="590" y="30" width="120" height="60" as="geometry" />
        </mxCell>
        <mxCell id="29LC9v6IH8hvMAatevx2-3" value="Server&lt;br&gt;manage,merchant.." style="whiteSpace=wrap;html=1;rounded=1;strokeWidth=1;" vertex="1" parent="1">
          <mxGeometry x="590" y="170" width="120" height="60" as="geometry" />
        </mxCell>
        <mxCell id="29LC9v6IH8hvMAatevx2-12" value="" style="endArrow=classic;startArrow=classic;html=1;rounded=0;edgeStyle=orthogonalEdgeStyle;" edge="1" parent="1">
          <mxGeometry width="50" height="50" relative="1" as="geometry">
            <mxPoint x="450" y="280" as="sourcePoint" />
            <mxPoint x="830" y="280" as="targetPoint" />
          </mxGeometry>
        </mxCell>
        <mxCell id="29LC9v6IH8hvMAatevx2-13" value="" style="endArrow=none;html=1;rounded=0;edgeStyle=orthogonalEdgeStyle;" edge="1" parent="1">
          <mxGeometry width="50" height="50" relative="1" as="geometry">
            <mxPoint x="600" y="280" as="sourcePoint" />
            <mxPoint x="650" y="230" as="targetPoint" />
            <Array as="points">
              <mxPoint x="650" y="280" />
            </Array>
          </mxGeometry>
        </mxCell>
        <mxCell id="29LC9v6IH8hvMAatevx2-16" value="&lt;b&gt;数量小于1000&lt;/b&gt;" style="text;html=1;align=center;verticalAlign=middle;resizable=0;points=[];autosize=1;strokeColor=none;" vertex="1" parent="1">
          <mxGeometry x="505" y="250" width="90" height="20" as="geometry" />
        </mxCell>
        <mxCell id="29LC9v6IH8hvMAatevx2-17" value="&lt;b&gt;数量大于1000&lt;/b&gt;" style="text;html=1;align=center;verticalAlign=middle;resizable=0;points=[];autosize=1;strokeColor=none;" vertex="1" parent="1">
          <mxGeometry x="690" y="250" width="90" height="20" as="geometry" />
        </mxCell>
        <mxCell id="29LC9v6IH8hvMAatevx2-61" value="" style="edgeStyle=orthogonalEdgeStyle;rounded=0;orthogonalLoop=1;jettySize=auto;html=1;startArrow=classic;" edge="1" parent="1" source="29LC9v6IH8hvMAatevx2-18" target="29LC9v6IH8hvMAatevx2-60">
          <mxGeometry relative="1" as="geometry" />
        </mxCell>
        <mxCell id="29LC9v6IH8hvMAatevx2-18" value="生成消息" style="rounded=1;whiteSpace=wrap;html=1;strokeWidth=1;" vertex="1" parent="1">
          <mxGeometry x="820" y="250" width="120" height="60" as="geometry" />
        </mxCell>
        <mxCell id="29LC9v6IH8hvMAatevx2-19" value="生成表格" style="rounded=1;whiteSpace=wrap;html=1;strokeWidth=1;" vertex="1" parent="1">
          <mxGeometry x="340" y="250" width="120" height="60" as="geometry" />
        </mxCell>
        <mxCell id="29LC9v6IH8hvMAatevx2-25" value="" style="endArrow=none;html=1;rounded=0;edgeStyle=orthogonalEdgeStyle;exitX=0;exitY=0.5;exitDx=0;exitDy=0;entryX=0;entryY=0.5;entryDx=0;entryDy=0;" edge="1" parent="1" source="29LC9v6IH8hvMAatevx2-19" target="29LC9v6IH8hvMAatevx2-2">
          <mxGeometry width="50" height="50" relative="1" as="geometry">
            <mxPoint x="240" y="220" as="sourcePoint" />
            <mxPoint x="580" y="60" as="targetPoint" />
            <Array as="points">
              <mxPoint x="290" y="280" />
              <mxPoint x="290" y="60" />
            </Array>
          </mxGeometry>
        </mxCell>
        <mxCell id="29LC9v6IH8hvMAatevx2-26" value="&lt;b&gt;直接导出&lt;/b&gt;" style="text;html=1;align=center;verticalAlign=middle;resizable=0;points=[];autosize=1;strokeColor=none;" vertex="1" parent="1">
          <mxGeometry x="290" y="130" width="60" height="20" as="geometry" />
        </mxCell>
        <mxCell id="29LC9v6IH8hvMAatevx2-28" value="" style="endArrow=none;html=1;rounded=0;edgeStyle=orthogonalEdgeStyle;exitX=0.5;exitY=0;exitDx=0;exitDy=0;" edge="1" parent="1" source="29LC9v6IH8hvMAatevx2-30">
          <mxGeometry width="50" height="50" relative="1" as="geometry">
            <mxPoint x="880" y="490" as="sourcePoint" />
            <mxPoint x="880" y="310" as="targetPoint" />
          </mxGeometry>
        </mxCell>
        <mxCell id="29LC9v6IH8hvMAatevx2-30" value="MQ队列" style="rounded=1;whiteSpace=wrap;html=1;strokeWidth=1;" vertex="1" parent="1">
          <mxGeometry x="820" y="420" width="120" height="60" as="geometry" />
        </mxCell>
        <mxCell id="29LC9v6IH8hvMAatevx2-31" value="&lt;b&gt;生产消息&lt;/b&gt;" style="text;html=1;align=center;verticalAlign=middle;resizable=0;points=[];autosize=1;strokeColor=none;" vertex="1" parent="1">
          <mxGeometry x="815" y="350" width="60" height="20" as="geometry" />
        </mxCell>
        <mxCell id="29LC9v6IH8hvMAatevx2-47" value="" style="edgeStyle=orthogonalEdgeStyle;rounded=0;orthogonalLoop=1;jettySize=auto;html=1;startArrow=classic;" edge="1" parent="1" source="29LC9v6IH8hvMAatevx2-36" target="29LC9v6IH8hvMAatevx2-46">
          <mxGeometry relative="1" as="geometry" />
        </mxCell>
        <mxCell id="29LC9v6IH8hvMAatevx2-36" value="merchant" style="rounded=1;whiteSpace=wrap;html=1;strokeWidth=1;" vertex="1" parent="1">
          <mxGeometry x="550" y="600" width="120" height="60" as="geometry" />
        </mxCell>
        <mxCell id="29LC9v6IH8hvMAatevx2-49" value="" style="edgeStyle=orthogonalEdgeStyle;rounded=0;orthogonalLoop=1;jettySize=auto;html=1;startArrow=classic;" edge="1" parent="1" source="29LC9v6IH8hvMAatevx2-37" target="29LC9v6IH8hvMAatevx2-48">
          <mxGeometry relative="1" as="geometry" />
        </mxCell>
        <mxCell id="29LC9v6IH8hvMAatevx2-37" value="manage" style="rounded=1;whiteSpace=wrap;html=1;strokeWidth=1;" vertex="1" parent="1">
          <mxGeometry x="820" y="600" width="120" height="60" as="geometry" />
        </mxCell>
        <mxCell id="29LC9v6IH8hvMAatevx2-51" value="" style="edgeStyle=orthogonalEdgeStyle;rounded=0;orthogonalLoop=1;jettySize=auto;html=1;startArrow=classic;" edge="1" parent="1" source="29LC9v6IH8hvMAatevx2-38" target="29LC9v6IH8hvMAatevx2-50">
          <mxGeometry relative="1" as="geometry" />
        </mxCell>
        <mxCell id="29LC9v6IH8hvMAatevx2-38" value="partner" style="rounded=1;whiteSpace=wrap;html=1;strokeWidth=1;" vertex="1" parent="1">
          <mxGeometry x="1080" y="600" width="120" height="60" as="geometry" />
        </mxCell>
        <mxCell id="29LC9v6IH8hvMAatevx2-40" value="" style="endArrow=classic;html=1;rounded=0;edgeStyle=orthogonalEdgeStyle;exitX=0.5;exitY=0;exitDx=0;exitDy=0;entryX=0.5;entryY=1;entryDx=0;entryDy=0;" edge="1" parent="1" source="29LC9v6IH8hvMAatevx2-36" target="29LC9v6IH8hvMAatevx2-30">
          <mxGeometry width="50" height="50" relative="1" as="geometry">
            <mxPoint x="740" y="580" as="sourcePoint" />
            <mxPoint x="790" y="530" as="targetPoint" />
            <Array as="points">
              <mxPoint x="610" y="530" />
              <mxPoint x="880" y="530" />
            </Array>
          </mxGeometry>
        </mxCell>
        <mxCell id="29LC9v6IH8hvMAatevx2-43" value="" style="endArrow=none;html=1;rounded=0;edgeStyle=orthogonalEdgeStyle;exitX=0.5;exitY=0;exitDx=0;exitDy=0;" edge="1" parent="1" source="29LC9v6IH8hvMAatevx2-37">
          <mxGeometry width="50" height="50" relative="1" as="geometry">
            <mxPoint x="740" y="580" as="sourcePoint" />
            <mxPoint x="790" y="530" as="targetPoint" />
            <Array as="points">
              <mxPoint x="880" y="530" />
            </Array>
          </mxGeometry>
        </mxCell>
        <mxCell id="29LC9v6IH8hvMAatevx2-44" value="" style="endArrow=none;html=1;rounded=0;edgeStyle=orthogonalEdgeStyle;entryX=0.5;entryY=0;entryDx=0;entryDy=0;" edge="1" parent="1" target="29LC9v6IH8hvMAatevx2-38">
          <mxGeometry width="50" height="50" relative="1" as="geometry">
            <mxPoint x="870" y="530" as="sourcePoint" />
            <mxPoint x="1070" y="480" as="targetPoint" />
            <Array as="points">
              <mxPoint x="1140" y="530" />
            </Array>
          </mxGeometry>
        </mxCell>
        <mxCell id="29LC9v6IH8hvMAatevx2-45" value="&lt;b&gt;&lt;font style=&quot;font-size: 14px&quot;&gt;pacypay-service&lt;br&gt;&lt;br&gt;que:download-center.download&lt;br&gt;&lt;/font&gt;&lt;/b&gt;" style="rounded=1;whiteSpace=wrap;html=1;strokeWidth=1;align=center;" vertex="1" parent="1">
          <mxGeometry x="1020" y="30" width="230" height="190" as="geometry" />
        </mxCell>
        <mxCell id="29LC9v6IH8hvMAatevx2-46" value="merchant&lt;br&gt;que:download-center.merchant.download" style="rounded=1;whiteSpace=wrap;html=1;strokeWidth=1;" vertex="1" parent="1">
          <mxGeometry x="230" y="600" width="240" height="60" as="geometry" />
        </mxCell>
        <mxCell id="29LC9v6IH8hvMAatevx2-48" value="manage&lt;br&gt;que:download-center.manage.download" style="rounded=1;whiteSpace=wrap;html=1;strokeWidth=1;" vertex="1" parent="1">
          <mxGeometry x="740" y="740" width="280" height="60" as="geometry" />
        </mxCell>
        <mxCell id="29LC9v6IH8hvMAatevx2-50" value="partner&lt;br&gt;que:download-center.merchant.download" style="rounded=1;whiteSpace=wrap;html=1;strokeWidth=1;" vertex="1" parent="1">
          <mxGeometry x="1280" y="600" width="240" height="60" as="geometry" />
        </mxCell>
        <mxCell id="29LC9v6IH8hvMAatevx2-52" value="&lt;b&gt;消费消息&lt;/b&gt;" style="text;html=1;align=center;verticalAlign=middle;resizable=0;points=[];autosize=1;strokeColor=none;" vertex="1" parent="1">
          <mxGeometry x="890" y="500" width="60" height="20" as="geometry" />
        </mxCell>
        <mxCell id="29LC9v6IH8hvMAatevx2-53" value="" style="endArrow=classic;startArrow=classic;html=1;rounded=0;edgeStyle=orthogonalEdgeStyle;" edge="1" parent="1" source="29LC9v6IH8hvMAatevx2-18">
          <mxGeometry width="50" height="50" relative="1" as="geometry">
            <mxPoint x="850" y="190" as="sourcePoint" />
            <mxPoint x="1020" y="120" as="targetPoint" />
            <Array as="points">
              <mxPoint x="880" y="120" />
              <mxPoint x="900" y="120" />
            </Array>
          </mxGeometry>
        </mxCell>
        <mxCell id="29LC9v6IH8hvMAatevx2-60" value="查询条件,下载类型&lt;br&gt;下载发起者......" style="rounded=1;whiteSpace=wrap;html=1;strokeWidth=1;" vertex="1" parent="1">
          <mxGeometry x="1020" y="250" width="120" height="60" as="geometry" />
        </mxCell>
      </root>
    </mxGraphModel>
  </diagram>
</mxfile>
